# xmcd
#
# Track frame offsets: 
#        150
#        20039
#        43416
#        78711
#        101296
#        128973
#        148567
#        172059
#        197420
#        241123
#
# Disc length: 3250 seconds
#
# Revision: 1
# Processed by: cddbd v1.5.2PL0 Copyright (c) Steve Scherf et al.
# Submitted via: ExactAudioCopy v0.95b4
#
DISCID=880cb00a
DTITLE=Krister Linder - Songs from the Silent Years
DYEAR=2006
DGENRE=New Age
TTITLE0=Don't Lose Your Way
TTITLE1=Eternal Life
TTITLE2=Soft King Kong
TTITLE3=Ghostfriend
TTITLE4=I Love You
TTITLE5=Mixed Blood
TTITLE6=Before It's All Over
TTITLE7=Turning Daisies
TTITLE8=Nothing Ever
TTITLE9=Le Drama Grandioso
EXTD=YEAR: 2006
EXTT0=
EXTT1=
EXTT2=
EXTT3=
EXTT4=
EXTT5=
EXTT6=
EXTT7=
EXTT8=
EXTT9=
PLAYORDER=
